<?xml version="1.0" standalone="no"?><!-- Generator: Gravit.io --><svg xmlns="http://www.w3.org/2000/svg" xmlns:xlink="http://www.w3.org/1999/xlink" style="isolation:isolate" viewBox="0 0 108 35" width="108" height="35"><defs><style>.cls-1,.cls-2{fill:#fff;}.cls-1{opacity:0.8;}</style></defs><g id="Layer_2" data-name="Layer 2"><g id="Layer_1-2" data-name="Layer 1"><path class="cls-1" d="M1.41,15.6,4,18.16,14.76,7.38a4.39,4.39,0,0,0,.46-5.82A4.22,4.22,0,0,0,9,1.24L1.41,8.78A4.83,4.83,0,0,0,1.41,15.6Z"/><path class="cls-2" d="M14.93,7.21,4,18.16l4.56,4.56a4.82,4.82,0,0,0,6.81,0l7.54-7.54a4.23,4.23,0,0,1,6,0l-3-3-8-8-3-3A4.22,4.22,0,0,1,14.93,7.21Z"/><path class="cls-1" d="M1.41,27.54l7.13,7.13a4.82,4.82,0,0,0,6.81,0L28.7,21.32a4.39,4.39,0,0,0,.46-5.82,4.22,4.22,0,0,0-6.27-.32l-7.54,7.54a4.82,4.82,0,0,1-6.81,0L4,18.16,1.41,20.73A4.82,4.82,0,0,0,1.41,27.54Zm12.05,2.89a1.78,1.78,0,1,1-2.51,0A1.77,1.77,0,0,1,13.46,30.43Z"/><path class="cls-2" d="M35.24,12.71H40c3.51,0,5.9,2.16,5.9,5.4s-2.39,5.4-5.9,5.4H35.24Zm4.63,9.1c2.41,0,4-1.46,4-3.7s-1.56-3.71-4-3.71H37.25v7.41Z"/><path class="cls-2" d="M47.39,12.75a1.17,1.17,0,0,1,1.24-1.15,1.14,1.14,0,0,1,1.23,1.11,1.24,1.24,0,0,1-2.47,0Zm.26,2.52h1.93v8.24H47.65Z"/><path class="cls-2" d="M51.28,19.39a4.39,4.39,0,1,1,4.38,4.23A4.14,4.14,0,0,1,51.28,19.39Zm6.84,0a2.45,2.45,0,1,0-4.89,0,2.45,2.45,0,1,0,4.89,0Z"/><path class="cls-2" d="M69.94,15.27v7c0,3-1.55,4.36-4.44,4.36a6.59,6.59,0,0,1-4-1.18L62.35,24a5,5,0,0,0,3,1c1.82,0,2.63-.83,2.63-2.5v-.43a3.65,3.65,0,0,1-2.77,1.09,4,4,0,1,1,0-8,3.57,3.57,0,0,1,2.86,1.19v-1.1Zm-1.89,3.87a2.52,2.52,0,0,0-5,0,2.51,2.51,0,0,0,5,0Z"/><path class="cls-2" d="M80,20H73.57a2.5,2.5,0,0,0,2.67,2,3,3,0,0,0,2.24-.89l1,1.19a4.18,4.18,0,0,1-3.32,1.34c-2.77,0-4.56-1.77-4.56-4.23a4.1,4.1,0,0,1,4.26-4.21,4,4,0,0,1,4.17,4.26C80.07,19.59,80.06,19.82,80,20Zm-6.48-1.28h4.68a2.37,2.37,0,0,0-4.68,0Z"/><path class="cls-2" d="M89.89,18.79v4.72H88V19c0-1.47-.72-2.18-2-2.18a2.19,2.19,0,0,0-2.3,2.48v4.17H81.77V15.27h1.84v1.06a3.59,3.59,0,0,1,2.84-1.15C88.42,15.18,89.89,16.3,89.89,18.79Z"/><path class="cls-2" d="M100,20H93.52a2.49,2.49,0,0,0,2.67,2,3,3,0,0,0,2.24-.89l1,1.19a4.18,4.18,0,0,1-3.32,1.34c-2.76,0-4.55-1.77-4.55-4.23a4.1,4.1,0,0,1,4.26-4.21A4,4,0,0,1,100,19.44C100,19.59,100,19.82,100,20ZM93.5,18.73h4.68a2.24,2.24,0,0,0-2.33-2A2.28,2.28,0,0,0,93.5,18.73Z"/><path class="cls-2" d="M100.78,22.69l.74-1.46a5.5,5.5,0,0,0,2.87.82c1.22,0,1.73-.34,1.73-.91,0-1.58-5.1-.1-5.1-3.39,0-1.55,1.41-2.57,3.63-2.57a6.53,6.53,0,0,1,3.09.71L107,17.35a4.56,4.56,0,0,0-2.37-.61c-1.17,0-1.72.38-1.72.92,0,1.67,5.09.19,5.09,3.41,0,1.55-1.42,2.55-3.74,2.55A6.48,6.48,0,0,1,100.78,22.69Z"/></g></g></svg>